<svg xmlns="http://www.w3.org/2000/svg" width="994" height="663" fill="none" viewBox="0 0 994 663"><mask id="a" fill="#fff"><path d="M809.17 156c0 34.242 27.758 62 62 62h59.999c34.241 0 62 27.758 62 62v321c0 34.242-27.759 62-62 62h-219c-19.883 0-36-16.118-36-36s-16.118-36-36-36H248.17c-34.242 0-62-27.758-62-62V368.212a62 62 0 0 0-31.636-54.056L21.527 239.443C.252 227.493-6.472 200.037 6.873 179.609c12.14-18.584 36.607-24.575 55.96-13.704l30.971 17.397c41.33 23.215 92.365-6.653 92.365-54.056V62c0-34.242 27.758-62 62-62h499c34.241 0 62 27.758 62 62z"/></mask><path fill="#fff" d="m21.527 239.443 2.448-4.359zM871.17 218v5h59.999v-10H871.17zm121.999 62h-5v321h10V280zm-62 383v-5h-219v10h219zm-291-72v-5H248.17v10h391.999zM186.17 529h5V368.212h-10V529zm-31.636-214.844 2.449-4.359-133.008-74.713-2.449 4.359-2.448 4.36 133.007 74.713zm-91.7-148.251-2.448 4.359 30.97 17.397 2.45-4.359 2.448-4.36-30.97-17.397zm123.336-36.659h5V62h-10v67.246zM248.17 0v5h499V-5h-499zm561 62h-5v94h10V62zm-62-62v5c31.48 0 57 25.52 57 57h10c0-37.003-29.997-67-67-67zm-561 62h5c0-31.48 25.519-57 57-57V-5c-37.003 0-67 29.997-67 67zM93.806 183.302l-2.45 4.359c44.663 25.088 99.814-7.189 99.814-58.415h-10c0 43.58-46.92 71.04-84.916 49.696zm-86.932-3.693 4.186 2.734c10.7-16.38 32.267-21.661 49.326-12.079l2.449-4.359 2.448-4.36c-21.647-12.16-49.015-5.458-62.595 15.329zm14.653 59.834 2.448-4.359C5.223 224.551-.703 200.349 11.06 182.343l-4.186-2.734-4.186-2.735c-14.928 22.85-7.407 53.562 16.39 66.929zM186.17 368.212h5a67 67 0 0 0-34.187-58.415l-2.449 4.359-2.449 4.36a57 57 0 0 1 29.085 49.696zm62 222.788v-5c-31.481 0-57-25.52-57-57h-10c0 37.003 29.997 67 67 67zm427.999 36h5c0-22.644-18.357-41-41-41v10c17.121 0 31 13.879 31 31zm36 36v-5c-17.121 0-31-13.879-31-31h-10c0 22.644 18.356 41 41 41zm281-62h-5c0 31.48-25.52 57-57 57v10c37.003 0 67-29.997 67-67zm-62-383v5c31.48 0 57 25.52 57 57h10c0-37.003-29.997-67-67-67zm-59.999 0v-5c-31.481 0-57-25.52-57-57h-10c0 37.003 29.997 67 67 67z" mask="url(#a)"/></svg>